<svg width="96" height="21" viewBox="0 0 96 21" fill="none" xmlns="http://www.w3.org/2000/svg">
<path d="M465.84 189.18 328.17 49.55a98.657 98.657 0 0 0-32.79-21.84 104.45 104.45 0 0 0-78.77 0 98.757 98.757 0 0 0-32.79 21.84L46.16 189.18A89 89 0 0 0 20 251.62V399c0 24.43 10.36 47.85 28.8 65.13 18.44 17.28 43.45 27 69.53 27h1.1a39.003 39.003 0 0 0 38.24-31.31 91 91 0 0 1 34.21-55.26 103.41 103.41 0 0 1 127.93 2.06A90.5 90.5 0 0 1 352 462.9a33.849 33.849 0 0 0 33.5 29.1h8.16a104.071 104.071 0 0 0 37.63-7 99.202 99.202 0 0 0 31.91-20 91.947 91.947 0 0 0 21.31-29.88A87.12 87.12 0 0 0 492 399.9V252.54c.22-23.47-9.14-46.13-26.16-63.36Z" fill="#FEF5E4"/>
</svg>
